<svg width="283" height="52" viewBox="0 0 283 52" fill="none" xmlns="http://www.w3.org/2000/svg">
<path d="M15.9705 5.5705C16.1707 4.89959 16.5823 4.31129 17.1439 3.89317C17.7055 3.47504 18.3871 3.24946 19.0872 3.25H33.4067C33.9317 3.2502 34.4489 3.37758 34.9139 3.62124C35.3789 3.8649 35.778 4.2176 36.077 4.64914C36.376 5.08069 36.566 5.57825 36.6307 6.09924C36.6954 6.62023 36.633 7.14915 36.4487 7.64075L33.2215 16.25H39.819C40.2774 16.2505 40.7263 16.3803 41.1142 16.6244C41.5022 16.8685 41.8135 17.217 42.0123 17.63C42.2112 18.043 42.2896 18.5037 42.2385 18.9592C42.1874 19.4147 42.0089 19.8466 41.7235 20.2053L20.2507 47.1803C17.4752 50.6675 11.9242 47.7912 13.1722 43.5142L17.3322 29.25H12.1875C11.8076 29.2506 11.4328 29.1624 11.0931 28.9924C10.7534 28.8225 10.4581 28.5755 10.2307 28.2711C10.0034 27.9668 9.85038 27.6135 9.78384 27.2395C9.7173 26.8655 9.73909 26.4811 9.84749 26.117L15.9705 5.5705V5.5705ZM33.41 6.5H19.0872L13.2762 26H19.5C19.7523 26 20.0011 26.0587 20.2267 26.1716C20.4523 26.2844 20.6486 26.4482 20.8 26.65C20.9514 26.8518 21.0536 27.0861 21.0988 27.3343C21.1439 27.5825 21.1306 27.8378 21.06 28.08L16.2922 44.4242C16.2261 44.6083 16.2331 44.8107 16.3117 44.9898C16.3956 45.1562 16.5313 45.2908 16.6985 45.3733C16.8837 45.4708 17.0755 45.4935 17.2315 45.4675C17.4246 45.4299 17.5957 45.3193 17.7092 45.1588L38.1322 19.5H30.875C30.6123 19.5 30.3535 19.4363 30.1208 19.3144C29.8881 19.1925 29.6885 19.016 29.5389 18.8C29.3894 18.584 29.2945 18.335 29.2622 18.0742C29.23 17.8135 29.2615 17.5489 29.354 17.303L33.4067 6.5H33.41Z" fill="#FFD166"/>
<path d="M58.3369 42.5H56.2246V12.5176H72.6309V14.4248H58.3369V27.2012H71.8516V29.0879H58.3369V42.5ZM78.9268 42.5H76.835V10.5898H78.9268V42.5ZM94.123 19.8184C96.5703 19.8184 98.4023 20.4336 99.6191 21.6641C100.836 22.8945 101.444 24.8564 101.444 27.5498V42.5H99.8447L99.4756 38.6035H99.3525C98.874 39.4375 98.293 40.1826 97.6094 40.8389C96.9258 41.4814 96.085 41.9873 95.0869 42.3564C94.1025 42.7256 92.8994 42.9102 91.4775 42.9102C90.042 42.9102 88.8115 42.6709 87.7861 42.1924C86.7744 41.7139 85.9883 41.0166 85.4277 40.1006C84.8809 39.1846 84.6074 38.0703 84.6074 36.7578C84.6074 34.543 85.5234 32.8613 87.3555 31.7129C89.1875 30.5508 91.8193 29.8945 95.251 29.7441L99.3936 29.5391V27.9189C99.3936 25.6357 98.9424 24.0088 98.04 23.0381C97.1377 22.0674 95.8047 21.582 94.041 21.582C92.8926 21.582 91.7852 21.7324 90.7188 22.0332C89.666 22.3203 88.5928 22.7373 87.499 23.2842L86.8428 21.5615C87.9092 21.0557 89.0508 20.6387 90.2676 20.3105C91.498 19.9824 92.7832 19.8184 94.123 19.8184ZM99.373 31.1592L95.4766 31.3232C92.6465 31.46 90.4932 31.9658 89.0166 32.8408C87.54 33.7158 86.8018 35.0283 86.8018 36.7783C86.8018 38.1865 87.2393 39.2666 88.1143 40.0186C89.0029 40.7705 90.2334 41.1465 91.8057 41.1465C94.2529 41.1465 96.1191 40.4492 97.4043 39.0547C98.7031 37.6602 99.3594 35.7598 99.373 33.3535V31.1592ZM122.547 36.6553C122.547 37.9814 122.212 39.1162 121.542 40.0596C120.886 40.9893 119.922 41.7002 118.65 42.1924C117.379 42.6709 115.813 42.9102 113.954 42.9102C112.409 42.9102 111.028 42.7734 109.812 42.5C108.595 42.2266 107.576 41.8916 106.756 41.4951V39.4443C107.781 39.9502 108.916 40.3604 110.16 40.6748C111.404 40.9893 112.683 41.1465 113.995 41.1465C116.292 41.1465 117.946 40.7568 118.958 39.9775C119.97 39.1982 120.476 38.1318 120.476 36.7783C120.476 35.8896 120.223 35.1582 119.717 34.584C119.225 33.9961 118.514 33.4902 117.584 33.0664C116.654 32.6426 115.533 32.2119 114.221 31.7744C112.854 31.3096 111.637 30.8516 110.57 30.4004C109.518 29.9355 108.69 29.3271 108.089 28.5752C107.487 27.8096 107.187 26.7705 107.187 25.458C107.187 23.667 107.904 22.2725 109.34 21.2744C110.775 20.2764 112.703 19.7773 115.123 19.7773C116.463 19.7773 117.707 19.9072 118.855 20.167C120.018 20.4131 121.07 20.7344 122.014 21.1309L121.275 22.8945C120.428 22.498 119.45 22.1768 118.343 21.9307C117.235 21.6846 116.128 21.5615 115.021 21.5615C113.202 21.5615 111.78 21.8828 110.755 22.5254C109.729 23.168 109.217 24.1113 109.217 25.3555C109.217 26.3125 109.463 27.0645 109.955 27.6113C110.447 28.1445 111.151 28.5957 112.067 28.9648C112.983 29.3203 114.07 29.7168 115.328 30.1543C116.627 30.6055 117.823 31.0771 118.917 31.5693C120.024 32.0615 120.906 32.6973 121.562 33.4766C122.219 34.2559 122.547 35.3154 122.547 36.6553ZM130.237 10.5898V21.0078C130.237 21.6094 130.224 22.1699 130.196 22.6895C130.183 23.209 130.155 23.7354 130.114 24.2686H130.258C130.627 23.4209 131.153 22.6621 131.837 21.9922C132.534 21.3223 133.389 20.7891 134.4 20.3926C135.426 19.9961 136.608 19.7979 137.948 19.7979C139.644 19.7979 141.065 20.0918 142.214 20.6797C143.376 21.2539 144.258 22.1357 144.859 23.3252C145.461 24.5146 145.762 26.0459 145.762 27.9189V42.5H143.711V28.042C143.711 25.8271 143.205 24.2002 142.193 23.1611C141.182 22.1221 139.712 21.6025 137.784 21.6025C136.144 21.6025 134.763 21.9238 133.642 22.5664C132.521 23.1953 131.673 24.1523 131.099 25.4375C130.524 26.709 130.237 28.3018 130.237 30.2158V42.5H128.166V10.5898H130.237ZM166.249 13.9941C164.335 13.9941 162.626 14.3223 161.122 14.9785C159.618 15.6211 158.347 16.5371 157.308 17.7266C156.269 18.916 155.476 20.3379 154.929 21.9922C154.382 23.6328 154.108 25.4443 154.108 27.4268C154.108 30.1611 154.539 32.5537 155.4 34.6045C156.262 36.6416 157.554 38.2207 159.276 39.3418C161.013 40.4629 163.173 41.0234 165.757 41.0234C167.261 41.0234 168.628 40.9141 169.858 40.6953C171.089 40.4629 172.23 40.1689 173.283 39.8135V41.6592C172.285 42.0283 171.157 42.3291 169.899 42.5615C168.655 42.7939 167.206 42.9102 165.552 42.9102C162.558 42.9102 160.042 42.2676 158.005 40.9824C155.981 39.6973 154.457 37.8926 153.432 35.5684C152.406 33.2441 151.894 30.5303 151.894 27.4268C151.894 25.1982 152.215 23.1543 152.857 21.2949C153.5 19.4219 154.437 17.8018 155.667 16.4346C156.911 15.0537 158.422 13.9873 160.199 13.2354C161.977 12.4697 164 12.0869 166.27 12.0869C167.705 12.0869 169.072 12.2305 170.371 12.5176C171.684 12.791 172.914 13.1943 174.062 13.7275L173.242 15.5732C172.135 15.0264 171 14.6299 169.838 14.3838C168.676 14.124 167.479 13.9941 166.249 13.9941ZM186.859 19.8184C189.307 19.8184 191.139 20.4336 192.355 21.6641C193.572 22.8945 194.181 24.8564 194.181 27.5498V42.5H192.581L192.212 38.6035H192.089C191.61 39.4375 191.029 40.1826 190.346 40.8389C189.662 41.4814 188.821 41.9873 187.823 42.3564C186.839 42.7256 185.636 42.9102 184.214 42.9102C182.778 42.9102 181.548 42.6709 180.522 42.1924C179.511 41.7139 178.725 41.0166 178.164 40.1006C177.617 39.1846 177.344 38.0703 177.344 36.7578C177.344 34.543 178.26 32.8613 180.092 31.7129C181.924 30.5508 184.556 29.8945 187.987 29.7441L192.13 29.5391V27.9189C192.13 25.6357 191.679 24.0088 190.776 23.0381C189.874 22.0674 188.541 21.582 186.777 21.582C185.629 21.582 184.521 21.7324 183.455 22.0332C182.402 22.3203 181.329 22.7373 180.235 23.2842L179.579 21.5615C180.646 21.0557 181.787 20.6387 183.004 20.3105C184.234 19.9824 185.52 19.8184 186.859 19.8184ZM192.109 31.1592L188.213 31.3232C185.383 31.46 183.229 31.9658 181.753 32.8408C180.276 33.7158 179.538 35.0283 179.538 36.7783C179.538 38.1865 179.976 39.2666 180.851 40.0186C181.739 40.7705 182.97 41.1465 184.542 41.1465C186.989 41.1465 188.855 40.4492 190.141 39.0547C191.439 37.6602 192.096 35.7598 192.109 33.3535V31.1592ZM210.218 19.8184C210.806 19.8184 211.359 19.8525 211.879 19.9209C212.398 19.9893 212.884 20.085 213.335 20.208L213.007 22.1152C212.556 21.9922 212.098 21.9033 211.633 21.8486C211.168 21.7803 210.669 21.7461 210.136 21.7461C209.083 21.7461 208.14 21.9443 207.306 22.3408C206.485 22.7373 205.788 23.3047 205.214 24.043C204.64 24.7812 204.202 25.6699 203.901 26.709C203.601 27.748 203.45 28.9102 203.45 30.1953V42.5H201.358V20.208H203.143L203.348 24.4121H203.471C203.812 23.5508 204.291 22.7783 204.906 22.0947C205.535 21.3975 206.294 20.8438 207.183 20.4336C208.071 20.0234 209.083 19.8184 210.218 19.8184ZM225.783 42.9102C222.734 42.9102 220.41 41.9531 218.811 40.0391C217.225 38.1113 216.432 35.3086 216.432 31.6309C216.432 27.7754 217.272 24.8359 218.954 22.8125C220.636 20.7891 222.98 19.7773 225.988 19.7773C227.273 19.7773 228.388 19.9756 229.331 20.3721C230.288 20.7686 231.088 21.3086 231.73 21.9922C232.387 22.6621 232.893 23.4277 233.248 24.2891H233.412C233.357 23.5645 233.316 22.7852 233.289 21.9512C233.262 21.1172 233.248 20.3516 233.248 19.6543V10.5898H235.319V42.5H233.638L233.371 38.4189H233.248C232.879 39.2393 232.366 39.9912 231.71 40.6748C231.067 41.3584 230.261 41.9053 229.29 42.3154C228.319 42.7119 227.15 42.9102 225.783 42.9102ZM226.009 41.1055C228.634 41.1055 230.5 40.292 231.607 38.665C232.715 37.0244 233.269 34.6865 233.269 31.6514V31.3232C233.269 28.1787 232.715 25.7725 231.607 24.1045C230.5 22.4229 228.695 21.582 226.193 21.582C223.719 21.582 221.825 22.4434 220.513 24.166C219.214 25.8887 218.564 28.3906 218.564 31.6719C218.564 34.7617 219.173 37.1064 220.39 38.7061C221.62 40.3057 223.493 41.1055 226.009 41.1055ZM256.668 36.6553C256.668 37.9814 256.333 39.1162 255.663 40.0596C255.007 40.9893 254.043 41.7002 252.771 42.1924C251.5 42.6709 249.935 42.9102 248.075 42.9102C246.53 42.9102 245.149 42.7734 243.933 42.5C242.716 42.2266 241.697 41.8916 240.877 41.4951V39.4443C241.902 39.9502 243.037 40.3604 244.281 40.6748C245.525 40.9893 246.804 41.1465 248.116 41.1465C250.413 41.1465 252.067 40.7568 253.079 39.9775C254.091 39.1982 254.597 38.1318 254.597 36.7783C254.597 35.8896 254.344 35.1582 253.838 34.584C253.346 33.9961 252.635 33.4902 251.705 33.0664C250.775 32.6426 249.654 32.2119 248.342 31.7744C246.975 31.3096 245.758 30.8516 244.691 30.4004C243.639 29.9355 242.812 29.3271 242.21 28.5752C241.608 27.8096 241.308 26.7705 241.308 25.458C241.308 23.667 242.025 22.2725 243.461 21.2744C244.896 20.2764 246.824 19.7773 249.244 19.7773C250.584 19.7773 251.828 19.9072 252.977 20.167C254.139 20.4131 255.191 20.7344 256.135 21.1309L255.396 22.8945C254.549 22.498 253.571 22.1768 252.464 21.9307C251.356 21.6846 250.249 21.5615 249.142 21.5615C247.323 21.5615 245.901 21.8828 244.876 22.5254C243.851 23.168 243.338 24.1113 243.338 25.3555C243.338 26.3125 243.584 27.0645 244.076 27.6113C244.568 28.1445 245.272 28.5957 246.188 28.9648C247.104 29.3203 248.191 29.7168 249.449 30.1543C250.748 30.6055 251.944 31.0771 253.038 31.5693C254.146 32.0615 255.027 32.6973 255.684 33.4766C256.34 34.2559 256.668 35.3154 256.668 36.6553ZM271.454 26.791H280.313V28.5752H271.454V37.5166H269.67V28.5752H260.831V26.791H269.67V17.8291H271.454V26.791Z" fill="white"/>
</svg>
