<svg width="52" height="52" viewBox="0 0 52 52" fill="none" xmlns="http://www.w3.org/2000/svg">
<path d="M15.9705 5.5705C16.1707 4.89959 16.5823 4.31129 17.1439 3.89317C17.7055 3.47504 18.3871 3.24946 19.0872 3.25H33.4067C33.9317 3.2502 34.4489 3.37758 34.9139 3.62124C35.3789 3.8649 35.778 4.2176 36.077 4.64914C36.376 5.08069 36.566 5.57825 36.6307 6.09924C36.6954 6.62023 36.633 7.14915 36.4487 7.64075L33.2215 16.25H39.819C40.2774 16.2505 40.7263 16.3803 41.1142 16.6244C41.5022 16.8685 41.8135 17.217 42.0123 17.63C42.2112 18.043 42.2896 18.5037 42.2385 18.9592C42.1874 19.4147 42.0089 19.8466 41.7235 20.2053L20.2507 47.1803C17.4752 50.6675 11.9242 47.7912 13.1722 43.5142L17.3322 29.25H12.1875C11.8076 29.2506 11.4328 29.1624 11.0931 28.9924C10.7534 28.8225 10.4581 28.5755 10.2307 28.2711C10.0034 27.9668 9.85038 27.6135 9.78384 27.2395C9.7173 26.8655 9.73909 26.4811 9.84749 26.117L15.9705 5.5705V5.5705ZM33.41 6.5H19.0872L13.2762 26H19.5C19.7523 26 20.0011 26.0587 20.2267 26.1716C20.4523 26.2844 20.6486 26.4482 20.8 26.65C20.9514 26.8518 21.0536 27.0861 21.0988 27.3343C21.1439 27.5825 21.1306 27.8378 21.06 28.08L16.2922 44.4242C16.2261 44.6083 16.2331 44.8107 16.3117 44.9898C16.3956 45.1562 16.5313 45.2908 16.6985 45.3733C16.8837 45.4708 17.0755 45.4935 17.2315 45.4675C17.4246 45.4299 17.5957 45.3193 17.7092 45.1588L38.1322 19.5H30.875C30.6123 19.5 30.3535 19.4363 30.1208 19.3144C29.8881 19.1925 29.6885 19.016 29.5389 18.8C29.3894 18.584 29.2945 18.335 29.2622 18.0742C29.23 17.8135 29.2615 17.5489 29.354 17.303L33.4067 6.5H33.41Z" fill="#FFD166"/>
</svg>
