<svg width="190" height="59" viewBox="0 0 190 59" fill="none" xmlns="http://www.w3.org/2000/svg">
<path d="M42.6138 7.0025C38.1375 8.99216 35.7236 12.5372 34.6064 17.0596C38.5529 14.7913 41.3705 11.5649 42.6138 7.0025ZM8.95874 7.28403C10.4151 10.5163 12.8656 13.1215 16.1312 15.2231C16.2789 12.2966 15.9512 9.63838 15.0908 7.28413H8.95874V7.28403ZM29.9282 8.17531C27.3506 13.5306 25.2529 18.9777 23.5626 24.503C22.3401 20.7302 20.8138 17.0189 18.9454 13.3768C18.9685 16.7937 19.2754 20.1183 19.8308 23.3621C16.1799 20.051 12.3346 16.9033 8.27221 13.9383C11.0774 18.0509 14.1072 21.904 17.3322 25.5311C14.8476 24.7601 11.9969 24.58 9.07471 24.9714C10.9164 26.3739 13.0781 27.611 15.374 28.3464C10.8343 28.6048 6.2759 29.0798 1.69696 29.7948C5.58852 30.5303 9.46415 31.0487 13.326 31.3738C11.2367 32.2165 9.18663 33.1533 7.18199 34.1812C10.989 34.1554 14.6817 33.7781 18.2754 33.0958C16.7061 35.1336 15.3088 37.3298 14.0576 39.661C16.4703 38.2435 18.7431 36.6722 20.8596 34.9288C19.6873 40.3895 18.8617 45.9165 18.3197 51.4979C20.3494 46.7554 22.1676 41.9361 23.7456 37.0297C24.8033 39.6618 26.0141 42.2441 27.3603 44.7824C27.1278 41.282 26.704 37.8202 26.0672 34.4015C30.4577 38.4403 35.1141 42.1717 39.9864 45.6531C36.3447 40.7903 32.4641 36.1285 28.3067 31.6993C34.4164 31.4652 40.4948 30.8031 46.5482 29.7949C42.0951 29.1557 37.6271 28.688 33.1429 28.4098C34.981 27.6 36.7954 26.7166 38.5877 25.7662C35.1596 25.9937 31.7686 26.4041 28.4189 27.019C29.5773 25.4627 30.6331 23.8327 31.5797 22.1393C30.0439 22.8915 28.5618 23.7485 27.1437 24.7043C28.3838 19.3078 29.3243 13.8027 29.9281 8.17541L29.9282 8.17531ZM46.3391 10.9527C41.769 13.5031 37.9771 17.4289 35.0953 22.9855C39.4387 22.8919 43.1517 21.7756 46.339 19.8293V10.9527H46.3391ZM2.37749 17.1883C2.25702 17.1874 2.1358 17.188 2.01393 17.1898C4.27612 20.5293 7.30443 22.3588 11.5528 21.7868C9.2503 18.5809 6.11587 17.2165 2.37749 17.1883ZM37.4475 34.0181C36.4606 34.0153 35.4386 34.1176 34.3856 34.3134C37.6603 37.7319 41.6081 39.4012 46.4942 38.6308C44.0486 35.3828 40.972 34.0284 37.4473 34.0181H37.4475ZM10.6663 36.1206C9.91555 36.121 9.18112 36.1727 8.4658 36.2443C6.08127 36.4853 3.87271 37.1434 1.84087 38.2189V44.8438C5.42137 42.9955 8.64187 40.1723 11.4224 36.1382C11.1685 36.126 10.9166 36.1204 10.6663 36.1204V36.1206ZM16.0782 40.7945C11.3481 42.9648 9.42824 46.8076 9.27477 51.7018C13.3135 49.2325 15.7876 45.7325 16.0782 40.7945ZM30.8592 42.2705C30.9372 45.8874 31.8665 48.9788 33.4873 51.6329H40.8788C38.755 47.8274 35.4861 44.6701 30.8591 42.2704L30.8592 42.2705Z" fill="#FFD166"/>
<path d="M76.064 47.144C73.6 47.144 71.312 46.728 69.2 45.896C67.12 45.032 65.296 43.832 63.728 42.296C62.192 40.76 60.992 38.968 60.128 36.92C59.264 34.872 58.832 32.632 58.832 30.2C58.832 27.768 59.264 25.528 60.128 23.48C60.992 21.432 62.192 19.64 63.728 18.104C65.296 16.568 67.12 15.384 69.2 14.552C71.312 13.688 73.6 13.256 76.064 13.256C78.272 13.256 80.368 13.608 82.352 14.312C84.336 15.016 86.048 16.088 87.488 17.528L86.912 18.2C85.376 16.728 83.696 15.688 81.872 15.08C80.048 14.472 78.112 14.168 76.064 14.168C73.76 14.168 71.616 14.584 69.632 15.416C67.648 16.216 65.92 17.352 64.448 18.824C62.976 20.264 61.824 21.96 60.992 23.912C60.192 25.832 59.792 27.928 59.792 30.2C59.792 32.472 60.192 34.584 60.992 36.536C61.824 38.456 62.976 40.152 64.448 41.624C65.92 43.064 67.648 44.2 69.632 45.032C71.616 45.832 73.76 46.232 76.064 46.232C78.112 46.232 80.048 45.928 81.872 45.32C83.696 44.68 85.376 43.624 86.912 42.152L87.488 42.824C86.048 44.264 84.336 45.352 82.352 46.088C80.368 46.792 78.272 47.144 76.064 47.144ZM111.016 47V41.096V40.28V30.776C111.016 28.184 110.344 26.232 109 24.92C107.656 23.608 105.704 22.952 103.144 22.952C101.288 22.952 99.5923 23.272 98.0563 23.912C96.5203 24.552 95.2083 25.384 94.1203 26.408L93.4483 25.736C94.6323 24.616 96.0723 23.72 97.7683 23.048C99.4643 22.376 101.24 22.04 103.096 22.04C105.976 22.04 108.168 22.776 109.672 24.248C111.208 25.72 111.976 27.88 111.976 30.728V47H111.016ZM101.56 47.144C99.7043 47.144 98.1203 46.856 96.8083 46.28C95.4963 45.704 94.4883 44.888 93.7843 43.832C93.1123 42.776 92.7763 41.56 92.7763 40.184C92.7763 39 93.0483 37.912 93.5923 36.92C94.1683 35.896 95.0963 35.08 96.3763 34.472C97.6563 33.832 99.4003 33.512 101.608 33.512H111.544V34.424H101.56C98.7443 34.424 96.7283 34.968 95.5123 36.056C94.3283 37.112 93.7363 38.472 93.7363 40.136C93.7363 41.992 94.4243 43.48 95.8003 44.6C97.1763 45.688 99.0963 46.232 101.56 46.232C103.96 46.232 105.928 45.688 107.464 44.6C109.032 43.48 110.216 41.912 111.016 39.896L111.496 40.52C110.824 42.504 109.64 44.104 107.944 45.32C106.28 46.536 104.152 47.144 101.56 47.144ZM122.739 47V22.184H123.699V29.048L123.603 28.904C124.275 26.728 125.443 25.048 127.107 23.864C128.803 22.648 130.915 22.04 133.443 22.04V23C133.411 23 133.363 23 133.299 23C133.267 23 133.219 23 133.155 23C130.179 23 127.859 23.96 126.195 25.88C124.531 27.768 123.699 30.36 123.699 33.656V47H122.739ZM149.531 47.144C147.259 47.144 145.211 46.616 143.387 45.56C141.563 44.472 140.123 42.984 139.067 41.096C138.011 39.176 137.483 37 137.483 34.568C137.483 32.104 138.011 29.944 139.067 28.088C140.123 26.2 141.563 24.728 143.387 23.672C145.211 22.584 147.259 22.04 149.531 22.04C151.803 22.04 153.835 22.584 155.627 23.672C157.419 24.728 158.827 26.2 159.851 28.088C160.907 29.944 161.435 32.104 161.435 34.568C161.435 37 160.907 39.176 159.851 41.096C158.827 42.984 157.419 44.472 155.627 45.56C153.835 46.616 151.803 47.144 149.531 47.144ZM149.531 46.232C151.643 46.232 153.531 45.736 155.195 44.744C156.891 43.752 158.219 42.376 159.179 40.616C160.139 38.856 160.619 36.84 160.619 34.568C160.619 32.264 160.139 30.248 159.179 28.52C158.219 26.76 156.891 25.4 155.195 24.44C153.531 23.448 151.643 22.952 149.531 22.952C147.419 22.952 145.531 23.448 143.867 24.44C142.203 25.4 140.875 26.76 139.883 28.52C138.923 30.248 138.443 32.264 138.443 34.568C138.443 36.84 138.923 38.856 139.883 40.616C140.875 42.376 142.203 43.752 143.867 44.744C145.531 45.736 147.419 46.232 149.531 46.232ZM160.619 47V37.88L161.099 34.52L160.619 31.16V11.384H161.579V47H160.619ZM178.326 47.144C176.31 47.144 174.422 46.824 172.662 46.184C170.902 45.544 169.558 44.728 168.63 43.736L169.206 42.968C170.102 43.832 171.35 44.6 172.95 45.272C174.55 45.912 176.342 46.232 178.326 46.232C181.27 46.232 183.382 45.72 184.662 44.696C185.942 43.672 186.582 42.344 186.582 40.712C186.582 39.528 186.278 38.6 185.67 37.928C185.062 37.224 184.246 36.696 183.222 36.344C182.23 35.96 181.126 35.656 179.91 35.432C178.694 35.208 177.478 34.968 176.262 34.712C175.046 34.456 173.926 34.104 172.902 33.656C171.91 33.176 171.11 32.536 170.502 31.736C169.894 30.904 169.59 29.8 169.59 28.424C169.59 27.304 169.894 26.264 170.502 25.304C171.11 24.344 172.054 23.56 173.334 22.952C174.646 22.344 176.326 22.04 178.374 22.04C179.91 22.04 181.43 22.28 182.934 22.76C184.438 23.208 185.654 23.816 186.582 24.584L186.006 25.352C185.014 24.552 183.846 23.96 182.502 23.576C181.158 23.16 179.782 22.952 178.374 22.952C175.654 22.952 173.67 23.48 172.422 24.536C171.206 25.592 170.598 26.888 170.598 28.424C170.598 29.64 170.902 30.616 171.51 31.352C172.118 32.056 172.918 32.6 173.91 32.984C174.934 33.368 176.054 33.672 177.27 33.896C178.486 34.12 179.686 34.36 180.87 34.616C182.086 34.872 183.19 35.224 184.182 35.672C185.206 36.12 186.022 36.744 186.63 37.544C187.238 38.312 187.542 39.368 187.542 40.712C187.542 41.96 187.206 43.08 186.534 44.072C185.862 45.032 184.838 45.784 183.462 46.328C182.118 46.872 180.406 47.144 178.326 47.144Z" fill="black"/>
</svg>
