<?xml version="1.0" standalone="no"?>
<!DOCTYPE svg PUBLIC "-//W3C//DTD SVG 20010904//EN"
 "http://www.w3.org/TR/2001/REC-SVG-20010904/DTD/svg10.dtd">
<svg version="1.0" xmlns="http://www.w3.org/2000/svg"
 width="270.000000pt" height="270.000000pt" viewBox="0 0 270.000000 270.000000"
 preserveAspectRatio="xMidYMid meet">
<metadata>
Created by potrace 1.14, written by Peter Selinger 2001-2017
</metadata>
<g transform="translate(0.000000,270.000000) scale(0.100000,-0.100000)"
fill="#000000" stroke="none">
<path d="M920 2514 c-50 -22 -76 -58 -104 -149 -115 -372 -308 -1036 -308
-1063 0 -40 23 -77 65 -102 28 -17 51 -20 181 -20 137 0 148 -1 141 -17 -4
-10 -8 -25 -10 -33 -5 -18 -122 -424 -135 -465 -49 -155 -73 -248 -73 -290 -1
-148 164 -250 299 -184 37 17 59 39 131 129 38 47 233 292 258 324 17 22 35
44 40 50 6 6 35 42 65 81 30 38 61 77 67 85 7 8 54 67 104 130 50 63 110 140
134 170 25 30 95 118 156 195 61 77 120 151 132 164 70 84 127 166 128 185 4
67 -12 103 -58 133 -23 16 -53 18 -210 18 -100 1 -185 4 -188 7 -4 3 5 35 18
70 91 233 148 398 149 428 1 52 -25 104 -68 136 l-37 29 -421 2 c-360 2 -426
0 -456 -13z m789 -153 c18 -1 22 -5 16 -18 -4 -10 -8 -25 -10 -33 -2 -8 -47
-129 -100 -268 -52 -138 -95 -264 -95 -277 0 -29 40 -75 67 -76 10 0 103 0
206 0 l188 0 -33 -42 c-18 -23 -35 -44 -38 -47 -3 -3 -27 -32 -52 -65 -25 -33
-54 -70 -64 -81 -11 -12 -73 -90 -139 -174 -66 -84 -153 -193 -193 -243 -83
-104 -78 -98 -152 -192 -30 -39 -57 -72 -60 -75 -3 -3 -21 -25 -40 -50 -19
-25 -40 -52 -47 -60 -7 -8 -46 -58 -88 -110 -42 -52 -89 -111 -105 -130 -15
-19 -37 -46 -47 -59 -15 -18 -26 -23 -45 -18 -14 4 -28 13 -31 21 -3 7 51 206
120 442 69 236 126 444 126 463 0 25 -7 40 -27 58 -26 22 -33 23 -203 23 -136
0 -174 3 -170 13 4 11 55 181 224 752 36 121 69 227 73 235 7 13 55 15 352 13
188 -1 354 -2 367 -2z"/>
</g>
</svg>
